<?xml version="1.0" encoding="UTF-8" standalone="no"?>
<!DOCTYPE svg PUBLIC "-//W3C//DTD SVG 1.1//EN"
 "http://www.w3.org/Graphics/SVG/1.1/DTD/svg11.dtd">
<!-- Generated by graphviz version 2.38.0 (20140413.2041)
 -->
<!-- Title: dependency&#45;cruiser output Pages: 1 -->
<svg width="927pt" height="742pt"
 viewBox="0.00 0.00 926.50 741.88" xmlns="http://www.w3.org/2000/svg" xmlns:xlink="http://www.w3.org/1999/xlink">
<g id="graph0" class="graph" transform="scale(1 1) rotate(0) translate(4 737.88)">
<title>dependency&#45;cruiser output</title>
<polygon fill="white" stroke="none" points="-4,4 -4,-737.88 922.5,-737.88 922.5,4 -4,4"/>
<g id="clust1" class="cluster"><title>cluster_.</title>
<path fill="#ffffff" stroke="black" stroke-width="2" d="M174.5,-41.8805C174.5,-41.8805 278.5,-41.8805 278.5,-41.8805 284.5,-41.8805 290.5,-47.8805 290.5,-53.8805 290.5,-53.8805 290.5,-183.88 290.5,-183.88 290.5,-189.88 284.5,-195.88 278.5,-195.88 278.5,-195.88 174.5,-195.88 174.5,-195.88 168.5,-195.88 162.5,-189.88 162.5,-183.88 162.5,-183.88 162.5,-53.8805 162.5,-53.8805 162.5,-47.8805 168.5,-41.8805 174.5,-41.8805"/>
<text text-anchor="middle" x="226.5" y="-184.68" font-family="Helvetica,sans-Serif" font-weight="bold" font-size="9.00">.</text>
</g>
<g id="clust2" class="cluster"><title>cluster_./classes</title>
<path fill="#ffffff" stroke="black" stroke-width="2" d="M182.5,-49.8805C182.5,-49.8805 270.5,-49.8805 270.5,-49.8805 276.5,-49.8805 282.5,-55.8805 282.5,-61.8805 282.5,-61.8805 282.5,-157.88 282.5,-157.88 282.5,-163.88 276.5,-169.88 270.5,-169.88 270.5,-169.88 182.5,-169.88 182.5,-169.88 176.5,-169.88 170.5,-163.88 170.5,-157.88 170.5,-157.88 170.5,-61.8805 170.5,-61.8805 170.5,-55.8805 176.5,-49.8805 182.5,-49.8805"/>
<text text-anchor="middle" x="226.5" y="-158.68" font-family="Helvetica,sans-Serif" font-weight="bold" font-size="9.00">classes</text>
</g>
<g id="clust3" class="cluster"><title>cluster_./classes/Cells</title>
<path fill="#ffffff" stroke="black" stroke-width="2" d="M190.5,-57.8805C190.5,-57.8805 262.5,-57.8805 262.5,-57.8805 268.5,-57.8805 274.5,-63.8805 274.5,-69.8805 274.5,-69.8805 274.5,-131.88 274.5,-131.88 274.5,-137.88 268.5,-143.88 262.5,-143.88 262.5,-143.88 190.5,-143.88 190.5,-143.88 184.5,-143.88 178.5,-137.88 178.5,-131.88 178.5,-131.88 178.5,-69.8805 178.5,-69.8805 178.5,-63.8805 184.5,-57.8805 190.5,-57.8805"/>
<text text-anchor="middle" x="226.5" y="-132.68" font-family="Helvetica,sans-Serif" font-weight="bold" font-size="9.00">Cells</text>
</g>
<g id="clust4" class="cluster"><title>cluster_./classes/Cells/Special</title>
<path fill="#ffffff" stroke="black" stroke-width="2" d="M198.5,-65.8805C198.5,-65.8805 254.5,-65.8805 254.5,-65.8805 260.5,-65.8805 266.5,-71.8805 266.5,-77.8805 266.5,-77.8805 266.5,-105.88 266.5,-105.88 266.5,-111.88 260.5,-117.88 254.5,-117.88 254.5,-117.88 198.5,-117.88 198.5,-117.88 192.5,-117.88 186.5,-111.88 186.5,-105.88 186.5,-105.88 186.5,-77.8805 186.5,-77.8805 186.5,-71.8805 192.5,-65.8805 198.5,-65.8805"/>
<text text-anchor="middle" x="226.5" y="-106.68" font-family="Helvetica,sans-Serif" font-weight="bold" font-size="9.00">Special</text>
</g>
<g id="clust5" class="cluster"><title>cluster_src</title>
<path fill="#ffffff" stroke="black" stroke-width="2" d="M20,-203.88C20,-203.88 826.5,-203.88 826.5,-203.88 832.5,-203.88 838.5,-209.88 838.5,-215.88 838.5,-215.88 838.5,-713.88 838.5,-713.88 838.5,-719.88 832.5,-725.88 826.5,-725.88 826.5,-725.88 20,-725.88 20,-725.88 14,-725.88 8,-719.88 8,-713.88 8,-713.88 8,-215.88 8,-215.88 8,-209.88 14,-203.88 20,-203.88"/>
<text text-anchor="middle" x="423.25" y="-714.68" font-family="Helvetica,sans-Serif" font-weight="bold" font-size="9.00">src</text>
</g>
<g id="clust6" class="cluster"><title>cluster_src/classes</title>
<path fill="#ffffff" stroke="black" stroke-width="2" d="M168,-251.88C168,-251.88 818.5,-251.88 818.5,-251.88 824.5,-251.88 830.5,-257.88 830.5,-263.88 830.5,-263.88 830.5,-629.88 830.5,-629.88 830.5,-635.88 824.5,-641.88 818.5,-641.88 818.5,-641.88 168,-641.88 168,-641.88 162,-641.88 156,-635.88 156,-629.88 156,-629.88 156,-263.88 156,-263.88 156,-257.88 162,-251.88 168,-251.88"/>
<text text-anchor="middle" x="493.25" y="-630.68" font-family="Helvetica,sans-Serif" font-weight="bold" font-size="9.00">classes</text>
</g>
<g id="clust7" class="cluster"><title>cluster_src/classes/Cells</title>
<path fill="#ffffff" stroke="black" stroke-width="2" d="M176,-417.88C176,-417.88 675.5,-417.88 675.5,-417.88 681.5,-417.88 687.5,-423.88 687.5,-429.88 687.5,-429.88 687.5,-577.88 687.5,-577.88 687.5,-583.88 681.5,-589.88 675.5,-589.88 675.5,-589.88 176,-589.88 176,-589.88 170,-589.88 164,-583.88 164,-577.88 164,-577.88 164,-429.88 164,-429.88 164,-423.88 170,-417.88 176,-417.88"/>
<text text-anchor="middle" x="425.75" y="-578.68" font-family="Helvetica,sans-Serif" font-weight="bold" font-size="9.00">Cells</text>
</g>
<g id="clust8" class="cluster"><title>cluster_src/classes/Cells/Special</title>
<path fill="#ffffff" stroke="black" stroke-width="2" d="M184,-425.88C184,-425.88 269,-425.88 269,-425.88 275,-425.88 281,-431.88 281,-437.88 281,-437.88 281,-525.88 281,-525.88 281,-531.88 275,-537.88 269,-537.88 269,-537.88 184,-537.88 184,-537.88 178,-537.88 172,-531.88 172,-525.88 172,-525.88 172,-437.88 172,-437.88 172,-431.88 178,-425.88 184,-425.88"/>
<text text-anchor="middle" x="226.5" y="-526.68" font-family="Helvetica,sans-Serif" font-weight="bold" font-size="9.00">Special</text>
</g>
<g id="clust9" class="cluster"><title>cluster_src/classes/Needs</title>
<path fill="#ffffff" stroke="black" stroke-width="2" d="M510.5,-357.88C510.5,-357.88 573.5,-357.88 573.5,-357.88 579.5,-357.88 585.5,-363.88 585.5,-369.88 585.5,-369.88 585.5,-397.88 585.5,-397.88 585.5,-403.88 579.5,-409.88 573.5,-409.88 573.5,-409.88 510.5,-409.88 510.5,-409.88 504.5,-409.88 498.5,-403.88 498.5,-397.88 498.5,-397.88 498.5,-369.88 498.5,-369.88 498.5,-363.88 504.5,-357.88 510.5,-357.88"/>
<text text-anchor="middle" x="542" y="-398.68" font-family="Helvetica,sans-Serif" font-weight="bold" font-size="9.00">Needs</text>
</g>
<!-- ./classes/Cells/Special/PowerPlant -->
<g id="node1" class="node"><title>./classes/Cells/Special/PowerPlant</title>
<path fill="#ffffcc" stroke="red" d="M252.5,-91.8805C252.5,-91.8805 200.5,-91.8805 200.5,-91.8805 197.5,-91.8805 194.5,-88.8805 194.5,-85.8805 194.5,-85.8805 194.5,-79.8805 194.5,-79.8805 194.5,-76.8805 197.5,-73.8805 200.5,-73.8805 200.5,-73.8805 252.5,-73.8805 252.5,-73.8805 255.5,-73.8805 258.5,-76.8805 258.5,-79.8805 258.5,-79.8805 258.5,-85.8805 258.5,-85.8805 258.5,-88.8805 255.5,-91.8805 252.5,-91.8805"/>
<text text-anchor="middle" x="226.5" y="-80.6805" font-family="Helvetica,sans-Serif" font-size="9.00" fill="red">PowerPlant</text>
</g>
<!-- package.json -->
<g id="node2" class="node"><title>package.json</title>
<g id="a_node2"><a xlink:href="package.json" xlink:title="package.json">
<path fill="#ffee44" stroke="black" d="M912.5,-189.88C912.5,-189.88 852.5,-189.88 852.5,-189.88 849.5,-189.88 846.5,-186.88 846.5,-183.88 846.5,-183.88 846.5,-177.88 846.5,-177.88 846.5,-174.88 849.5,-171.88 852.5,-171.88 852.5,-171.88 912.5,-171.88 912.5,-171.88 915.5,-171.88 918.5,-174.88 918.5,-177.88 918.5,-177.88 918.5,-183.88 918.5,-183.88 918.5,-186.88 915.5,-189.88 912.5,-189.88"/>
<text text-anchor="middle" x="882.5" y="-178.68" font-family="Helvetica,sans-Serif" font-size="9.00">package.json</text>
</a>
</g>
</g>
<!-- settings.js -->
<g id="node3" class="node"><title>settings.js</title>
<g id="a_node3"><a xlink:href="settings.js" xlink:title="settings.js">
<path fill="#ffffcc" stroke="black" d="M816,-189.88C816,-189.88 769,-189.88 769,-189.88 766,-189.88 763,-186.88 763,-183.88 763,-183.88 763,-177.88 763,-177.88 763,-174.88 766,-171.88 769,-171.88 769,-171.88 816,-171.88 816,-171.88 819,-171.88 822,-174.88 822,-177.88 822,-177.88 822,-183.88 822,-183.88 822,-186.88 819,-189.88 816,-189.88"/>
<text text-anchor="middle" x="792.5" y="-178.68" font-family="Helvetica,sans-Serif" font-size="9.00">settings.js</text>
</a>
</g>
</g>
<!-- settings.js&#45;&gt;package.json -->
<g id="edge1" class="edge"><title>settings.js&#45;&gt;package.json</title>
<path fill="none" stroke="#000000" stroke-width="2" stroke-opacity="0.200000" d="M822.314,-180.88C828.104,-180.88 834.293,-180.88 840.408,-180.88"/>
<polygon fill="#000000" fill-opacity="0.200000" stroke="#000000" stroke-width="2" stroke-opacity="0.200000" points="840.479,-182.981 846.479,-180.88 840.479,-178.781 840.479,-182.981"/>
</g>
<!-- src/classes/Area.js -->
<g id="node4" class="node"><title>src/classes/Area.js</title>
<g id="a_node4"><a xlink:href="src/classes/Area.js" xlink:title="Area.js">
<path fill="#ffffcc" stroke="black" d="M658.5,-291.88C658.5,-291.88 616.5,-291.88 616.5,-291.88 613.5,-291.88 610.5,-288.88 610.5,-285.88 610.5,-285.88 610.5,-279.88 610.5,-279.88 610.5,-276.88 613.5,-273.88 616.5,-273.88 616.5,-273.88 658.5,-273.88 658.5,-273.88 661.5,-273.88 664.5,-276.88 664.5,-279.88 664.5,-279.88 664.5,-285.88 664.5,-285.88 664.5,-288.88 661.5,-291.88 658.5,-291.88"/>
<text text-anchor="middle" x="637.5" y="-280.68" font-family="Helvetica,sans-Serif" font-size="9.00">Area.js</text>
</a>
</g>
</g>
<!-- src/classes/Position.js -->
<g id="node5" class="node"><title>src/classes/Position.js</title>
<g id="a_node5"><a xlink:href="src/classes/Position.js" xlink:title="Position.js">
<path fill="#ffffcc" stroke="black" d="M816.5,-315.88C816.5,-315.88 768.5,-315.88 768.5,-315.88 765.5,-315.88 762.5,-312.88 762.5,-309.88 762.5,-309.88 762.5,-303.88 762.5,-303.88 762.5,-300.88 765.5,-297.88 768.5,-297.88 768.5,-297.88 816.5,-297.88 816.5,-297.88 819.5,-297.88 822.5,-300.88 822.5,-303.88 822.5,-303.88 822.5,-309.88 822.5,-309.88 822.5,-312.88 819.5,-315.88 816.5,-315.88"/>
<text text-anchor="middle" x="792.5" y="-304.68" font-family="Helvetica,sans-Serif" font-size="9.00">Position.js</text>
</a>
</g>
</g>
<!-- src/classes/Area.js&#45;&gt;src/classes/Position.js -->
<g id="edge2" class="edge"><title>src/classes/Area.js&#45;&gt;src/classes/Position.js</title>
<path fill="none" stroke="#000000" stroke-width="2" stroke-opacity="0.200000" d="M664.802,-287.006C690.061,-290.968 728.393,-296.981 756.279,-301.356"/>
<polygon fill="#000000" fill-opacity="0.200000" stroke="#000000" stroke-width="2" stroke-opacity="0.200000" points="756.164,-303.463 762.417,-302.318 756.815,-299.314 756.164,-303.463"/>
</g>
<!-- src/classes/Camera.js -->
<g id="node6" class="node"><title>src/classes/Camera.js</title>
<g id="a_node6"><a xlink:href="src/classes/Camera.js" xlink:title="Camera.js">
<path fill="#ffffcc" stroke="black" d="M463.5,-277.88C463.5,-277.88 415.5,-277.88 415.5,-277.88 412.5,-277.88 409.5,-274.88 409.5,-271.88 409.5,-271.88 409.5,-265.88 409.5,-265.88 409.5,-262.88 412.5,-259.88 415.5,-259.88 415.5,-259.88 463.5,-259.88 463.5,-259.88 466.5,-259.88 469.5,-262.88 469.5,-265.88 469.5,-265.88 469.5,-271.88 469.5,-271.88 469.5,-274.88 466.5,-277.88 463.5,-277.88"/>
<text text-anchor="middle" x="439.5" y="-266.68" font-family="Helvetica,sans-Serif" font-size="9.00">Camera.js</text>
</a>
</g>
</g>
<!-- src/classes/Camera.js&#45;&gt;src/classes/Position.js -->
<g id="edge4" class="edge"><title>src/classes/Camera.js&#45;&gt;src/classes/Position.js</title>
<path fill="none" stroke="#000000" stroke-width="2" stroke-opacity="0.200000" d="M469.671,-265.511C516.16,-260.867 609.741,-254.493 687.5,-267.88 716.335,-272.845 747.525,-285.625 768.147,-295.212"/>
<polygon fill="#000000" fill-opacity="0.200000" stroke="#000000" stroke-width="2" stroke-opacity="0.200000" points="767.351,-297.159 773.673,-297.823 769.145,-293.361 767.351,-297.159"/>
</g>
<!-- src/classes/Grid.js -->
<g id="node7" class="node"><title>src/classes/Grid.js</title>
<g id="a_node7"><a xlink:href="src/classes/Grid.js" xlink:title="Grid.js">
<path fill="#ffffcc" stroke="black" d="M563,-306.88C563,-306.88 521,-306.88 521,-306.88 518,-306.88 515,-303.88 515,-300.88 515,-300.88 515,-294.88 515,-294.88 515,-291.88 518,-288.88 521,-288.88 521,-288.88 563,-288.88 563,-288.88 566,-288.88 569,-291.88 569,-294.88 569,-294.88 569,-300.88 569,-300.88 569,-303.88 566,-306.88 563,-306.88"/>
<text text-anchor="middle" x="542" y="-295.68" font-family="Helvetica,sans-Serif" font-size="9.00">Grid.js</text>
</a>
</g>
</g>
<!-- src/classes/Camera.js&#45;&gt;src/classes/Grid.js -->
<g id="edge3" class="edge"><title>src/classes/Camera.js&#45;&gt;src/classes/Grid.js</title>
<path fill="none" stroke="#000000" stroke-width="2" stroke-opacity="0.200000" d="M469.569,-277.269C481.824,-280.805 496.137,-284.935 508.719,-288.566"/>
<polygon fill="#000000" fill-opacity="0.200000" stroke="#000000" stroke-width="2" stroke-opacity="0.200000" points="508.393,-290.657 514.74,-290.303 509.558,-286.622 508.393,-290.657"/>
</g>
<!-- src/classes/Grid.js&#45;&gt;settings.js -->
<g id="edge30" class="edge"><title>src/classes/Grid.js&#45;&gt;settings.js</title>
<path fill="none" stroke="#000000" stroke-width="2" stroke-opacity="0.200000" d="M544.934,-288.74C549.659,-268.909 563.798,-222.024 595.5,-200.88 644.049,-168.501 714.94,-170.397 756.831,-175.264"/>
<polygon fill="#000000" fill-opacity="0.200000" stroke="#000000" stroke-width="2" stroke-opacity="0.200000" points="756.583,-177.349 762.795,-176 757.098,-173.181 756.583,-177.349"/>
</g>
<!-- src/classes/Grid.js&#45;&gt;src/classes/Area.js -->
<g id="edge32" class="edge"><title>src/classes/Grid.js&#45;&gt;src/classes/Area.js</title>
<path fill="none" stroke="#000000" stroke-width="2" stroke-opacity="0.200000" d="M569.045,-293.702C579.896,-291.961 592.612,-289.921 604.06,-288.085"/>
<polygon fill="#000000" fill-opacity="0.200000" stroke="#000000" stroke-width="2" stroke-opacity="0.200000" points="604.679,-290.112 610.27,-287.088 604.014,-285.965 604.679,-290.112"/>
</g>
<!-- src/classes/Cell.js -->
<g id="node8" class="node"><title>src/classes/Cell.js</title>
<g id="a_node8"><a xlink:href="src/classes/Cell.js" xlink:title="Cell.js">
<path fill="#ffffcc" stroke="black" d="M743.5,-460.88C743.5,-460.88 701.5,-460.88 701.5,-460.88 698.5,-460.88 695.5,-457.88 695.5,-454.88 695.5,-454.88 695.5,-448.88 695.5,-448.88 695.5,-445.88 698.5,-442.88 701.5,-442.88 701.5,-442.88 743.5,-442.88 743.5,-442.88 746.5,-442.88 749.5,-445.88 749.5,-448.88 749.5,-448.88 749.5,-454.88 749.5,-454.88 749.5,-457.88 746.5,-460.88 743.5,-460.88"/>
<text text-anchor="middle" x="722.5" y="-449.68" font-family="Helvetica,sans-Serif" font-size="9.00">Cell.js</text>
</a>
</g>
</g>
<!-- src/classes/Grid.js&#45;&gt;src/classes/Cell.js -->
<g id="edge33" class="edge"><title>src/classes/Grid.js&#45;&gt;src/classes/Cell.js</title>
<path fill="none" stroke="#000000" stroke-width="2" stroke-opacity="0.200000" d="M551.69,-307.05C560.44,-316.385 574.222,-331.366 585.5,-344.88 590.17,-350.477 589.281,-354.077 595.5,-357.88 630.973,-379.576 654.878,-349.097 687.5,-374.88 707.002,-390.295 715.599,-419.223 719.172,-436.899"/>
<polygon fill="#000000" fill-opacity="0.200000" stroke="#000000" stroke-width="2" stroke-opacity="0.200000" points="717.118,-437.338 720.272,-442.856 721.248,-436.575 717.118,-437.338"/>
</g>
<!-- src/classes/Chunk.js -->
<g id="node22" class="node"><title>src/classes/Chunk.js</title>
<g id="a_node22"><a xlink:href="src/classes/Chunk.js" xlink:title="Chunk.js">
<path fill="#ffffcc" stroke="black" d="M658.5,-321.88C658.5,-321.88 616.5,-321.88 616.5,-321.88 613.5,-321.88 610.5,-318.88 610.5,-315.88 610.5,-315.88 610.5,-309.88 610.5,-309.88 610.5,-306.88 613.5,-303.88 616.5,-303.88 616.5,-303.88 658.5,-303.88 658.5,-303.88 661.5,-303.88 664.5,-306.88 664.5,-309.88 664.5,-309.88 664.5,-315.88 664.5,-315.88 664.5,-318.88 661.5,-321.88 658.5,-321.88"/>
<text text-anchor="middle" x="637.5" y="-310.68" font-family="Helvetica,sans-Serif" font-size="9.00">Chunk.js</text>
</a>
</g>
</g>
<!-- src/classes/Grid.js&#45;&gt;src/classes/Chunk.js -->
<g id="edge34" class="edge"><title>src/classes/Grid.js&#45;&gt;src/classes/Chunk.js</title>
<path fill="none" stroke="#000000" stroke-width="2" stroke-opacity="0.200000" d="M569.045,-302.059C579.896,-303.8 592.612,-305.84 604.06,-307.676"/>
<polygon fill="#000000" fill-opacity="0.200000" stroke="#000000" stroke-width="2" stroke-opacity="0.200000" points="604.014,-309.796 610.27,-308.673 604.679,-305.649 604.014,-309.796"/>
</g>
<!-- src/dbg.js -->
<g id="node24" class="node"><title>src/dbg.js</title>
<g id="a_node24"><a xlink:href="src/dbg.js" xlink:title="dbg.js">
<path fill="#ffffcc" stroke="black" d="M743.5,-243.88C743.5,-243.88 701.5,-243.88 701.5,-243.88 698.5,-243.88 695.5,-240.88 695.5,-237.88 695.5,-237.88 695.5,-231.88 695.5,-231.88 695.5,-228.88 698.5,-225.88 701.5,-225.88 701.5,-225.88 743.5,-225.88 743.5,-225.88 746.5,-225.88 749.5,-228.88 749.5,-231.88 749.5,-231.88 749.5,-237.88 749.5,-237.88 749.5,-240.88 746.5,-243.88 743.5,-243.88"/>
<text text-anchor="middle" x="722.5" y="-232.68" font-family="Helvetica,sans-Serif" font-size="9.00">dbg.js</text>
</a>
</g>
</g>
<!-- src/classes/Grid.js&#45;&gt;src/dbg.js -->
<g id="edge31" class="edge"><title>src/classes/Grid.js&#45;&gt;src/dbg.js</title>
<path fill="none" stroke="#000000" stroke-width="2" stroke-opacity="0.200000" d="M556.75,-288.684C567.056,-282.129 581.699,-273.515 595.5,-267.88 626.316,-255.298 663.352,-246.275 689.267,-240.878"/>
<polygon fill="#000000" fill-opacity="0.200000" stroke="#000000" stroke-width="2" stroke-opacity="0.200000" points="689.818,-242.909 695.276,-239.65 688.977,-238.794 689.818,-242.909"/>
</g>
<!-- src/classes/LayeredNoise.js -->
<g id="node25" class="node"><title>src/classes/LayeredNoise.js</title>
<g id="a_node25"><a xlink:href="src/classes/LayeredNoise.js" xlink:title="LayeredNoise.js">
<path fill="#ffffcc" stroke="black" d="M673.5,-351.88C673.5,-351.88 601.5,-351.88 601.5,-351.88 598.5,-351.88 595.5,-348.88 595.5,-345.88 595.5,-345.88 595.5,-339.88 595.5,-339.88 595.5,-336.88 598.5,-333.88 601.5,-333.88 601.5,-333.88 673.5,-333.88 673.5,-333.88 676.5,-333.88 679.5,-336.88 679.5,-339.88 679.5,-339.88 679.5,-345.88 679.5,-345.88 679.5,-348.88 676.5,-351.88 673.5,-351.88"/>
<text text-anchor="middle" x="637.5" y="-340.68" font-family="Helvetica,sans-Serif" font-size="9.00">LayeredNoise.js</text>
</a>
</g>
</g>
<!-- src/classes/Grid.js&#45;&gt;src/classes/LayeredNoise.js -->
<g id="edge35" class="edge"><title>src/classes/Grid.js&#45;&gt;src/classes/LayeredNoise.js</title>
<path fill="none" stroke="#000000" stroke-width="2" stroke-opacity="0.200000" d="M557.359,-306.963C567.72,-313.296 582.172,-321.688 595.5,-327.88 598.194,-329.132 601.023,-330.352 603.884,-331.52"/>
<polygon fill="#000000" fill-opacity="0.200000" stroke="#000000" stroke-width="2" stroke-opacity="0.200000" points="603.415,-333.593 609.767,-333.841 604.956,-329.686 603.415,-333.593"/>
</g>
<!-- src/classes/Cell.js&#45;&gt;src/classes/Position.js -->
<g id="edge5" class="edge"><title>src/classes/Cell.js&#45;&gt;src/classes/Position.js</title>
<path fill="none" stroke="#000000" stroke-width="2" stroke-opacity="0.200000" d="M727.754,-442.81C739.155,-418.499 770.481,-351.701 784.526,-321.751"/>
<polygon fill="#000000" fill-opacity="0.200000" stroke="#000000" stroke-width="2" stroke-opacity="0.200000" points="786.602,-322.271 787.248,-315.947 782.799,-320.488 786.602,-322.271"/>
</g>
<!-- src/classes/Cells/Constructable.js -->
<g id="node9" class="node"><title>src/classes/Cells/Constructable.js</title>
<g id="a_node9"><a xlink:href="src/classes/Cells/Constructable.js" xlink:title="Constructable.js">
<path fill="#ffffcc" stroke="black" d="M673.5,-518.88C673.5,-518.88 601.5,-518.88 601.5,-518.88 598.5,-518.88 595.5,-515.88 595.5,-512.88 595.5,-512.88 595.5,-506.88 595.5,-506.88 595.5,-503.88 598.5,-500.88 601.5,-500.88 601.5,-500.88 673.5,-500.88 673.5,-500.88 676.5,-500.88 679.5,-503.88 679.5,-506.88 679.5,-506.88 679.5,-512.88 679.5,-512.88 679.5,-515.88 676.5,-518.88 673.5,-518.88"/>
<text text-anchor="middle" x="637.5" y="-507.68" font-family="Helvetica,sans-Serif" font-size="9.00">Constructable.js</text>
</a>
</g>
</g>
<!-- src/classes/Cells/Constructable.js&#45;&gt;src/classes/Cell.js -->
<g id="edge6" class="edge"><title>src/classes/Cells/Constructable.js&#45;&gt;src/classes/Cell.js</title>
<path fill="none" stroke="#000000" stroke-width="2" stroke-opacity="0.200000" d="M679.533,-501.272C682.328,-500.004 685.016,-498.549 687.5,-496.88 698.915,-489.212 708.038,-476.415 713.948,-466.424"/>
<polygon fill="#000000" fill-opacity="0.200000" stroke="#000000" stroke-width="2" stroke-opacity="0.200000" points="715.931,-467.183 717.05,-460.925 712.273,-465.119 715.931,-467.183"/>
</g>
<!-- src/classes/Cells/InhabitedCell.js -->
<g id="node10" class="node"><title>src/classes/Cells/InhabitedCell.js</title>
<g id="a_node10"><a xlink:href="src/classes/Cells/InhabitedCell.js" xlink:title="InhabitedCell.js">
<path fill="#ffffcc" stroke="black" d="M576.5,-489.88C576.5,-489.88 507.5,-489.88 507.5,-489.88 504.5,-489.88 501.5,-486.88 501.5,-483.88 501.5,-483.88 501.5,-477.88 501.5,-477.88 501.5,-474.88 504.5,-471.88 507.5,-471.88 507.5,-471.88 576.5,-471.88 576.5,-471.88 579.5,-471.88 582.5,-474.88 582.5,-477.88 582.5,-477.88 582.5,-483.88 582.5,-483.88 582.5,-486.88 579.5,-489.88 576.5,-489.88"/>
<text text-anchor="middle" x="542" y="-478.68" font-family="Helvetica,sans-Serif" font-size="9.00">InhabitedCell.js</text>
</a>
</g>
</g>
<!-- src/classes/Cells/InhabitedCell.js&#45;&gt;src/classes/Cell.js -->
<g id="edge7" class="edge"><title>src/classes/Cells/InhabitedCell.js&#45;&gt;src/classes/Cell.js</title>
<path fill="none" stroke="#000000" stroke-width="2" stroke-opacity="0.200000" d="M582.595,-477.979C611.828,-475.347 652.454,-470.659 687.5,-462.88 688.136,-462.739 688.777,-462.591 689.421,-462.437"/>
<polygon fill="#000000" fill-opacity="0.200000" stroke="#000000" stroke-width="2" stroke-opacity="0.200000" points="690.004,-464.455 695.278,-460.906 688.942,-460.392 690.004,-464.455"/>
</g>
<!-- src/classes/Cells/InhabitedCell.js&#45;&gt;src/classes/Cells/Constructable.js -->
<g id="edge8" class="edge"><title>src/classes/Cells/InhabitedCell.js&#45;&gt;src/classes/Cells/Constructable.js</title>
<path fill="none" stroke="#000000" stroke-width="2" stroke-opacity="0.200000" d="M572.071,-489.897C581.394,-492.789 591.817,-496.022 601.517,-499.03"/>
<polygon fill="#000000" fill-opacity="0.200000" stroke="#000000" stroke-width="2" stroke-opacity="0.200000" points="601.094,-501.098 607.447,-500.869 602.338,-497.086 601.094,-501.098"/>
</g>
<!-- src/classes/Cells/MultiCellPart.js -->
<g id="node11" class="node"><title>src/classes/Cells/MultiCellPart.js</title>
<g id="a_node11"><a xlink:href="src/classes/Cells/MultiCellPart.js" xlink:title="MultiCellPart.js">
<path fill="#ffffcc" stroke="black" d="M371.5,-488.88C371.5,-488.88 305.5,-488.88 305.5,-488.88 302.5,-488.88 299.5,-485.88 299.5,-482.88 299.5,-482.88 299.5,-476.88 299.5,-476.88 299.5,-473.88 302.5,-470.88 305.5,-470.88 305.5,-470.88 371.5,-470.88 371.5,-470.88 374.5,-470.88 377.5,-473.88 377.5,-476.88 377.5,-476.88 377.5,-482.88 377.5,-482.88 377.5,-485.88 374.5,-488.88 371.5,-488.88"/>
<text text-anchor="middle" x="338.5" y="-477.68" font-family="Helvetica,sans-Serif" font-size="9.00">MultiCellPart.js</text>
</a>
</g>
</g>
<!-- src/classes/Cells/MultiCellStructure.js -->
<g id="node12" class="node"><title>src/classes/Cells/MultiCellStructure.js</title>
<g id="a_node12"><a xlink:href="src/classes/Cells/MultiCellStructure.js" xlink:title="MultiCellStructure.js">
<path fill="#ffffcc" stroke="black" d="M482.5,-473.88C482.5,-473.88 396.5,-473.88 396.5,-473.88 393.5,-473.88 390.5,-470.88 390.5,-467.88 390.5,-467.88 390.5,-461.88 390.5,-461.88 390.5,-458.88 393.5,-455.88 396.5,-455.88 396.5,-455.88 482.5,-455.88 482.5,-455.88 485.5,-455.88 488.5,-458.88 488.5,-461.88 488.5,-461.88 488.5,-467.88 488.5,-467.88 488.5,-470.88 485.5,-473.88 482.5,-473.88"/>
<text text-anchor="middle" x="439.5" y="-462.68" font-family="Helvetica,sans-Serif" font-size="9.00">MultiCellStructure.js</text>
</a>
</g>
</g>
<!-- src/classes/Cells/MultiCellPart.js&#45;&gt;src/classes/Cells/MultiCellStructure.js -->
<g id="edge9" class="edge"><title>src/classes/Cells/MultiCellPart.js&#45;&gt;src/classes/Cells/MultiCellStructure.js</title>
<path fill="none" stroke="#000000" stroke-width="2" stroke-opacity="0.200000" d="M371.096,-470.866C372.815,-470.551 374.567,-470.239 376.343,-469.932"/>
<polygon fill="#000000" fill-opacity="0.200000" stroke="#000000" stroke-width="2" stroke-opacity="0.200000" points="384.654,-470.72 390.244,-467.693 383.986,-466.574 384.654,-470.72"/>
<polyline fill="none" stroke="#000000" stroke-width="2" stroke-opacity="0.200000" points="384.32,-468.647 381.358,-469.124 "/>
<ellipse fill="none" stroke="#000000" stroke-width="2" stroke-opacity="0.200000" cx="378.989" cy="-469.506" rx="2.4" ry="2.4"/>
</g>
<!-- src/classes/Cells/SpecialBuilding.js -->
<g id="node13" class="node"><title>src/classes/Cells/SpecialBuilding.js</title>
<g id="a_node13"><a xlink:href="src/classes/Cells/SpecialBuilding.js" xlink:title="SpecialBuilding.js">
<path fill="#ffffcc" stroke="black" d="M479,-503.88C479,-503.88 400,-503.88 400,-503.88 397,-503.88 394,-500.88 394,-497.88 394,-497.88 394,-491.88 394,-491.88 394,-488.88 397,-485.88 400,-485.88 400,-485.88 479,-485.88 479,-485.88 482,-485.88 485,-488.88 485,-491.88 485,-491.88 485,-497.88 485,-497.88 485,-500.88 482,-503.88 479,-503.88"/>
<text text-anchor="middle" x="439.5" y="-492.68" font-family="Helvetica,sans-Serif" font-size="9.00">SpecialBuilding.js</text>
</a>
</g>
</g>
<!-- src/classes/Cells/MultiCellPart.js&#45;&gt;src/classes/Cells/SpecialBuilding.js -->
<g id="edge10" class="edge"><title>src/classes/Cells/MultiCellPart.js&#45;&gt;src/classes/Cells/SpecialBuilding.js</title>
<path fill="none" stroke="#000000" stroke-width="2" stroke-opacity="0.200000" d="M377.776,-485.68C381.041,-486.175 384.374,-486.68 387.715,-487.186"/>
<polygon fill="#000000" fill-opacity="0.200000" stroke="#000000" stroke-width="2" stroke-opacity="0.200000" points="387.478,-489.274 393.725,-488.096 388.107,-485.121 387.478,-489.274"/>
</g>
<!-- src/classes/Cells/MultiCellStructure.js&#45;&gt;src/classes/Cell.js -->
<g id="edge11" class="edge"><title>src/classes/Cells/MultiCellStructure.js&#45;&gt;src/classes/Cell.js</title>
<path fill="none" stroke="#000000" stroke-width="2" stroke-opacity="0.200000" d="M488.529,-456.001C491.896,-455.563 495.244,-455.181 498.5,-454.88 566.115,-448.636 645.745,-449.539 689.195,-450.728"/>
<polygon fill="#000000" fill-opacity="0.200000" stroke="#000000" stroke-width="2" stroke-opacity="0.200000" points="689.28,-452.831 695.338,-450.904 689.401,-448.633 689.28,-452.831"/>
</g>
<!-- src/classes/Cells/MultiCellStructure.js&#45;&gt;src/classes/Cells/MultiCellPart.js -->
<g id="edge12" class="edge"><title>src/classes/Cells/MultiCellStructure.js&#45;&gt;src/classes/Cells/MultiCellPart.js</title>
<path fill="none" stroke="#000000" stroke-width="2" stroke-opacity="0.200000" d="M406.742,-473.925C401.843,-474.821 396.677,-475.691 391.474,-476.501"/>
<polygon fill="#000000" fill-opacity="0.200000" stroke="#000000" stroke-width="2" stroke-opacity="0.200000" points="383.415,-475.541 377.776,-478.477 384.014,-479.698 383.415,-475.541"/>
<polyline fill="none" stroke="#000000" stroke-width="2" stroke-opacity="0.200000" points="383.715,-477.62 386.684,-477.192 "/>
<ellipse fill="none" stroke="#000000" stroke-width="2" stroke-opacity="0.200000" cx="389.059" cy="-476.849" rx="2.4" ry="2.4"/>
</g>
<!-- src/classes/Cells/SpecialBuilding.js&#45;&gt;src/classes/Cell.js -->
<g id="edge23" class="edge"><title>src/classes/Cells/SpecialBuilding.js&#45;&gt;src/classes/Cell.js</title>
<path fill="none" stroke="#000000" stroke-width="2" stroke-opacity="0.200000" d="M478.332,-485.693C481.929,-484.055 485.389,-482.134 488.5,-479.88 494.693,-475.396 491.814,-469.591 498.5,-465.88 499.53,-465.309 627.492,-457.538 689.087,-453.827"/>
<polygon fill="#000000" fill-opacity="0.200000" stroke="#000000" stroke-width="2" stroke-opacity="0.200000" points="689.328,-455.917 695.191,-453.46 689.075,-451.724 689.328,-455.917"/>
</g>
<!-- src/classes/Cells/SpecialBuilding.js&#45;&gt;src/classes/Cells/InhabitedCell.js -->
<g id="edge24" class="edge"><title>src/classes/Cells/SpecialBuilding.js&#45;&gt;src/classes/Cells/InhabitedCell.js</title>
<path fill="none" stroke="#000000" stroke-width="2" stroke-opacity="0.200000" d="M485.166,-488.658C488.508,-488.193 491.883,-487.723 495.232,-487.256"/>
<polygon fill="#000000" fill-opacity="0.200000" stroke="#000000" stroke-width="2" stroke-opacity="0.200000" points="495.565,-489.33 501.218,-486.422 494.985,-485.17 495.565,-489.33"/>
</g>
<!-- src/classes/Cells/Residential.js -->
<g id="node14" class="node"><title>src/classes/Cells/Residential.js</title>
<g id="a_node14"><a xlink:href="src/classes/Cells/Residential.js" xlink:title="Residential.js">
<path fill="#ffffcc" stroke="black" d="M470.5,-443.88C470.5,-443.88 408.5,-443.88 408.5,-443.88 405.5,-443.88 402.5,-440.88 402.5,-437.88 402.5,-437.88 402.5,-431.88 402.5,-431.88 402.5,-428.88 405.5,-425.88 408.5,-425.88 408.5,-425.88 470.5,-425.88 470.5,-425.88 473.5,-425.88 476.5,-428.88 476.5,-431.88 476.5,-431.88 476.5,-437.88 476.5,-437.88 476.5,-440.88 473.5,-443.88 470.5,-443.88"/>
<text text-anchor="middle" x="439.5" y="-432.68" font-family="Helvetica,sans-Serif" font-size="9.00">Residential.js</text>
</a>
</g>
</g>
<!-- src/classes/Cells/Residential.js&#45;&gt;src/classes/Cells/InhabitedCell.js -->
<g id="edge15" class="edge"><title>src/classes/Cells/Residential.js&#45;&gt;src/classes/Cells/InhabitedCell.js</title>
<path fill="none" stroke="#000000" stroke-width="2" stroke-opacity="0.200000" d="M476.656,-442.815C480.908,-444.693 484.979,-447.014 488.5,-449.88 495.597,-455.658 491.385,-462.124 498.5,-467.88 498.725,-468.062 498.952,-468.242 499.182,-468.419"/>
<polygon fill="#000000" fill-opacity="0.200000" stroke="#000000" stroke-width="2" stroke-opacity="0.200000" points="498.15,-470.253 504.322,-471.778 500.448,-466.738 498.15,-470.253"/>
</g>
<!-- src/classes/Need.js -->
<g id="node15" class="node"><title>src/classes/Need.js</title>
<g id="a_node15"><a xlink:href="src/classes/Need.js" xlink:title="Need.js">
<path fill="#ffffcc" stroke="black" d="M658.5,-409.88C658.5,-409.88 616.5,-409.88 616.5,-409.88 613.5,-409.88 610.5,-406.88 610.5,-403.88 610.5,-403.88 610.5,-397.88 610.5,-397.88 610.5,-394.88 613.5,-391.88 616.5,-391.88 616.5,-391.88 658.5,-391.88 658.5,-391.88 661.5,-391.88 664.5,-394.88 664.5,-397.88 664.5,-397.88 664.5,-403.88 664.5,-403.88 664.5,-406.88 661.5,-409.88 658.5,-409.88"/>
<text text-anchor="middle" x="637.5" y="-398.68" font-family="Helvetica,sans-Serif" font-size="9.00">Need.js</text>
</a>
</g>
</g>
<!-- src/classes/Cells/Residential.js&#45;&gt;src/classes/Need.js -->
<g id="edge13" class="edge"><title>src/classes/Cells/Residential.js&#45;&gt;src/classes/Need.js</title>
<path fill="none" stroke="#000000" stroke-width="2" stroke-opacity="0.200000" d="M476.69,-430.214C506.107,-426.222 548.626,-420.004 585.5,-412.88 591.595,-411.703 598.065,-410.3 604.277,-408.876"/>
<polygon fill="#000000" fill-opacity="0.200000" stroke="#000000" stroke-width="2" stroke-opacity="0.200000" points="605.014,-410.861 610.38,-407.453 604.06,-406.771 605.014,-410.861"/>
</g>
<!-- src/classes/Needs/Healthcare.js -->
<g id="node16" class="node"><title>src/classes/Needs/Healthcare.js</title>
<g id="a_node16"><a xlink:href="src/classes/Needs/Healthcare.js" xlink:title="Healthcare.js">
<path fill="#ffffcc" stroke="black" d="M571.5,-383.88C571.5,-383.88 512.5,-383.88 512.5,-383.88 509.5,-383.88 506.5,-380.88 506.5,-377.88 506.5,-377.88 506.5,-371.88 506.5,-371.88 506.5,-368.88 509.5,-365.88 512.5,-365.88 512.5,-365.88 571.5,-365.88 571.5,-365.88 574.5,-365.88 577.5,-368.88 577.5,-371.88 577.5,-371.88 577.5,-377.88 577.5,-377.88 577.5,-380.88 574.5,-383.88 571.5,-383.88"/>
<text text-anchor="middle" x="542" y="-372.68" font-family="Helvetica,sans-Serif" font-size="9.00">Healthcare.js</text>
</a>
</g>
</g>
<!-- src/classes/Cells/Residential.js&#45;&gt;src/classes/Needs/Healthcare.js -->
<g id="edge14" class="edge"><title>src/classes/Cells/Residential.js&#45;&gt;src/classes/Needs/Healthcare.js</title>
<path fill="none" stroke="#000000" stroke-width="2" stroke-opacity="0.200000" d="M476.605,-427.086C480.729,-425.621 484.782,-423.899 488.5,-421.88 496.926,-417.306 514.717,-400.713 527.245,-388.534"/>
<polygon fill="#000000" fill-opacity="0.200000" stroke="#000000" stroke-width="2" stroke-opacity="0.200000" points="528.776,-389.974 531.595,-384.277 525.838,-386.972 528.776,-389.974"/>
</g>
<!-- src/classes/Needs/Healthcare.js&#45;&gt;src/classes/Need.js -->
<g id="edge39" class="edge"><title>src/classes/Needs/Healthcare.js&#45;&gt;src/classes/Need.js</title>
<path fill="none" stroke="#000000" stroke-width="2" stroke-opacity="0.200000" d="M575.439,-383.901C584.785,-386.5 594.975,-389.333 604.306,-391.928"/>
<polygon fill="#000000" fill-opacity="0.200000" stroke="#000000" stroke-width="2" stroke-opacity="0.200000" points="603.952,-394.009 610.296,-393.594 605.078,-389.963 603.952,-394.009"/>
</g>
<!-- src/classes/Cells/Special/CoalPowerPlant.js -->
<g id="node17" class="node"><title>src/classes/Cells/Special/CoalPowerPlant.js</title>
<g id="a_node17"><a xlink:href="src/classes/Cells/Special/CoalPowerPlant.js" xlink:title="CoalPowerPlant.js">
<path fill="#ffffcc" stroke="black" d="M267,-481.88C267,-481.88 186,-481.88 186,-481.88 183,-481.88 180,-478.88 180,-475.88 180,-475.88 180,-469.88 180,-469.88 180,-466.88 183,-463.88 186,-463.88 186,-463.88 267,-463.88 267,-463.88 270,-463.88 273,-466.88 273,-469.88 273,-469.88 273,-475.88 273,-475.88 273,-478.88 270,-481.88 267,-481.88"/>
<text text-anchor="middle" x="226.5" y="-470.68" font-family="Helvetica,sans-Serif" font-size="9.00">CoalPowerPlant.js</text>
</a>
</g>
</g>
<!-- src/classes/Cells/Special/CoalPowerPlant.js&#45;&gt;src/classes/Cells/MultiCellPart.js -->
<g id="edge16" class="edge"><title>src/classes/Cells/Special/CoalPowerPlant.js&#45;&gt;src/classes/Cells/MultiCellPart.js</title>
<path fill="none" stroke="#000000" stroke-width="2" stroke-opacity="0.200000" d="M273.194,-475.788C279.883,-476.214 286.761,-476.652 293.416,-477.075"/>
<polygon fill="#000000" fill-opacity="0.200000" stroke="#000000" stroke-width="2" stroke-opacity="0.200000" points="293.333,-479.174 299.454,-477.459 293.6,-474.982 293.333,-479.174"/>
</g>
<!-- src/classes/Cells/Special/CoalPowerPlant.js&#45;&gt;src/classes/Cells/MultiCellStructure.js -->
<g id="edge17" class="edge"><title>src/classes/Cells/Special/CoalPowerPlant.js&#45;&gt;src/classes/Cells/MultiCellStructure.js</title>
<path fill="none" stroke="#000000" stroke-width="2" stroke-opacity="0.200000" d="M273.143,-467.039C281.878,-466.14 290.961,-465.353 299.5,-464.88 327.383,-463.336 358.461,-463.188 384.148,-463.489"/>
<polygon fill="#000000" fill-opacity="0.200000" stroke="#000000" stroke-width="2" stroke-opacity="0.200000" points="384.19,-465.59 390.217,-463.57 384.246,-461.39 384.19,-465.59"/>
</g>
<!-- src/classes/Cells/Special/TownHall.js -->
<g id="node18" class="node"><title>src/classes/Cells/Special/TownHall.js</title>
<g id="a_node18"><a xlink:href="src/classes/Cells/Special/TownHall.js" xlink:title="TownHall.js">
<path fill="#ffffcc" stroke="black" d="M253,-511.88C253,-511.88 200,-511.88 200,-511.88 197,-511.88 194,-508.88 194,-505.88 194,-505.88 194,-499.88 194,-499.88 194,-496.88 197,-493.88 200,-493.88 200,-493.88 253,-493.88 253,-493.88 256,-493.88 259,-496.88 259,-499.88 259,-499.88 259,-505.88 259,-505.88 259,-508.88 256,-511.88 253,-511.88"/>
<text text-anchor="middle" x="226.5" y="-500.68" font-family="Helvetica,sans-Serif" font-size="9.00">TownHall.js</text>
</a>
</g>
</g>
<!-- src/classes/Cells/Special/TownHall.js&#45;&gt;src/classes/Cells/MultiCellPart.js -->
<g id="edge18" class="edge"><title>src/classes/Cells/Special/TownHall.js&#45;&gt;src/classes/Cells/MultiCellPart.js</title>
<path fill="none" stroke="#000000" stroke-width="2" stroke-opacity="0.200000" d="M259.022,-496.29C269.726,-494.051 281.891,-491.508 293.394,-489.103"/>
<polygon fill="#000000" fill-opacity="0.200000" stroke="#000000" stroke-width="2" stroke-opacity="0.200000" points="293.894,-491.144 299.337,-487.86 293.034,-487.033 293.894,-491.144"/>
</g>
<!-- src/classes/Cells/Special/TownHall.js&#45;&gt;src/classes/Cells/MultiCellStructure.js -->
<g id="edge19" class="edge"><title>src/classes/Cells/Special/TownHall.js&#45;&gt;src/classes/Cells/MultiCellStructure.js</title>
<path fill="none" stroke="#000000" stroke-width="2" stroke-opacity="0.200000" d="M259.174,-504.053C296.92,-504.958 357.413,-504.708 377.5,-494.88 385.424,-491.004 383.12,-484.714 390.5,-479.88 392.363,-478.661 394.33,-477.535 396.364,-476.497"/>
<polygon fill="#000000" fill-opacity="0.200000" stroke="#000000" stroke-width="2" stroke-opacity="0.200000" points="397.309,-478.374 401.873,-473.949 395.546,-474.562 397.309,-478.374"/>
</g>
<!-- src/classes/Cells/Special/WaterPump.js -->
<g id="node19" class="node"><title>src/classes/Cells/Special/WaterPump.js</title>
<g id="a_node19"><a xlink:href="src/classes/Cells/Special/WaterPump.js" xlink:title="WaterPump.js">
<path fill="#ffffcc" stroke="black" d="M258,-451.88C258,-451.88 195,-451.88 195,-451.88 192,-451.88 189,-448.88 189,-445.88 189,-445.88 189,-439.88 189,-439.88 189,-436.88 192,-433.88 195,-433.88 195,-433.88 258,-433.88 258,-433.88 261,-433.88 264,-436.88 264,-439.88 264,-439.88 264,-445.88 264,-445.88 264,-448.88 261,-451.88 258,-451.88"/>
<text text-anchor="middle" x="226.5" y="-440.68" font-family="Helvetica,sans-Serif" font-size="9.00">WaterPump.js</text>
</a>
</g>
</g>
<!-- src/classes/Cells/Special/WaterPump.js&#45;&gt;src/classes/Cell.js -->
<g id="edge20" class="edge"><title>src/classes/Cells/Special/WaterPump.js&#45;&gt;src/classes/Cell.js</title>
<path fill="none" stroke="#000000" stroke-width="2" stroke-opacity="0.200000" d="M264.24,-440.511C273.435,-438.573 282.848,-435.308 290.5,-429.88 296.841,-425.383 293.366,-419.657 299.5,-414.88 372.386,-358.125 407.111,-368.358 498.5,-354.88 536.753,-349.239 551.68,-336.136 585.5,-354.88 592.835,-358.946 588.518,-366.237 595.5,-370.88 629.996,-393.823 653.984,-361.528 687.5,-385.88 704.288,-398.079 713.408,-421.039 717.864,-436.399"/>
<polygon fill="#000000" fill-opacity="0.200000" stroke="#000000" stroke-width="2" stroke-opacity="0.200000" points="715.909,-437.216 719.497,-442.463 719.965,-436.124 715.909,-437.216"/>
</g>
<!-- src/classes/Cells/Special/WaterPump.js&#45;&gt;src/classes/Cells/MultiCellPart.js -->
<g id="edge21" class="edge"><title>src/classes/Cells/Special/WaterPump.js&#45;&gt;src/classes/Cells/MultiCellPart.js</title>
<path fill="none" stroke="#000000" stroke-width="2" stroke-opacity="0.200000" d="M264.177,-450.28C272.904,-452.405 282.114,-454.954 290.5,-457.88 298.634,-460.719 307.249,-464.507 314.851,-468.138"/>
<polygon fill="#000000" fill-opacity="0.200000" stroke="#000000" stroke-width="2" stroke-opacity="0.200000" points="314.129,-470.123 320.442,-470.867 315.971,-466.348 314.129,-470.123"/>
</g>
<!-- src/classes/Cells/Special/WaterPump.js&#45;&gt;src/classes/Cells/MultiCellStructure.js -->
<g id="edge22" class="edge"><title>src/classes/Cells/Special/WaterPump.js&#45;&gt;src/classes/Cells/MultiCellStructure.js</title>
<path fill="none" stroke="#000000" stroke-width="2" stroke-opacity="0.200000" d="M264.253,-446.713C297.291,-450.157 346.261,-455.263 383.881,-459.186"/>
<polygon fill="#000000" fill-opacity="0.200000" stroke="#000000" stroke-width="2" stroke-opacity="0.200000" points="384.105,-461.32 390.291,-459.854 384.541,-457.143 384.105,-461.32"/>
</g>
<!-- src/classes/Cells/Template.js -->
<g id="node20" class="node"><title>src/classes/Cells/Template.js</title>
<g id="a_node20"><a xlink:href="src/classes/Cells/Template.js" xlink:title="Template.js">
<path fill="#ffffcc" stroke="black" d="M568.5,-519.88C568.5,-519.88 515.5,-519.88 515.5,-519.88 512.5,-519.88 509.5,-516.88 509.5,-513.88 509.5,-513.88 509.5,-507.88 509.5,-507.88 509.5,-504.88 512.5,-501.88 515.5,-501.88 515.5,-501.88 568.5,-501.88 568.5,-501.88 571.5,-501.88 574.5,-504.88 574.5,-507.88 574.5,-507.88 574.5,-513.88 574.5,-513.88 574.5,-516.88 571.5,-519.88 568.5,-519.88"/>
<text text-anchor="middle" x="542" y="-508.68" font-family="Helvetica,sans-Serif" font-size="9.00">Template.js</text>
</a>
</g>
</g>
<!-- src/classes/Cells/Template.js&#45;&gt;src/classes/Cell.js -->
<g id="edge25" class="edge"><title>src/classes/Cells/Template.js&#45;&gt;src/classes/Cell.js</title>
<path fill="none" stroke="#000000" stroke-width="2" stroke-opacity="0.200000" d="M571.23,-501.872C579.058,-499.485 587.581,-496.988 595.5,-494.88 636.03,-484.094 648.86,-490.188 687.5,-473.88 693.427,-471.379 699.46,-467.855 704.767,-464.36"/>
<polygon fill="#000000" fill-opacity="0.200000" stroke="#000000" stroke-width="2" stroke-opacity="0.200000" points="706.037,-466.035 709.801,-460.912 703.664,-462.57 706.037,-466.035"/>
</g>
<!-- src/classes/Cells/Template.js&#45;&gt;src/classes/Cells/Constructable.js -->
<g id="edge26" class="edge"><title>src/classes/Cells/Template.js&#45;&gt;src/classes/Cells/Constructable.js</title>
<path fill="none" stroke="#000000" stroke-width="2" stroke-opacity="0.200000" d="M574.655,-510.542C579.348,-510.492 584.269,-510.439 589.199,-510.386"/>
<polygon fill="#000000" fill-opacity="0.200000" stroke="#000000" stroke-width="2" stroke-opacity="0.200000" points="589.453,-512.484 595.43,-510.32 589.408,-508.284 589.453,-512.484"/>
</g>
<!-- src/classes/Cells/Water.js -->
<g id="node21" class="node"><title>src/classes/Cells/Water.js</title>
<g id="a_node21"><a xlink:href="src/classes/Cells/Water.js" xlink:title="Water.js">
<path fill="#ffffcc" stroke="black" d="M247.5,-563.88C247.5,-563.88 205.5,-563.88 205.5,-563.88 202.5,-563.88 199.5,-560.88 199.5,-557.88 199.5,-557.88 199.5,-551.88 199.5,-551.88 199.5,-548.88 202.5,-545.88 205.5,-545.88 205.5,-545.88 247.5,-545.88 247.5,-545.88 250.5,-545.88 253.5,-548.88 253.5,-551.88 253.5,-551.88 253.5,-557.88 253.5,-557.88 253.5,-560.88 250.5,-563.88 247.5,-563.88"/>
<text text-anchor="middle" x="226.5" y="-552.68" font-family="Helvetica,sans-Serif" font-size="9.00">Water.js</text>
</a>
</g>
</g>
<!-- src/classes/Cells/Water.js&#45;&gt;src/classes/Cell.js -->
<g id="edge27" class="edge"><title>src/classes/Cells/Water.js&#45;&gt;src/classes/Cell.js</title>
<path fill="none" stroke="#000000" stroke-width="2" stroke-opacity="0.200000" d="M253.811,-553.857C293.731,-552.394 371.994,-549.88 438.5,-549.88 438.5,-549.88 438.5,-549.88 543,-549.88 608.176,-549.88 635.737,-564.486 687.5,-524.88 705.928,-510.78 714.753,-484.28 718.68,-467.384"/>
<polygon fill="#000000" fill-opacity="0.200000" stroke="#000000" stroke-width="2" stroke-opacity="0.200000" points="720.798,-467.522 719.996,-461.215 716.69,-466.645 720.798,-467.522"/>
</g>
<!-- src/classes/Chunk.js&#45;&gt;settings.js -->
<g id="edge28" class="edge"><title>src/classes/Chunk.js&#45;&gt;settings.js</title>
<path fill="none" stroke="#000000" stroke-width="2" stroke-opacity="0.200000" d="M664.627,-310.623C673.149,-308.554 681.86,-304.761 687.5,-297.88 710.154,-270.247 673.838,-246.299 695.5,-217.88 703.286,-207.666 732.62,-197.251 756.835,-190.085"/>
<polygon fill="#000000" fill-opacity="0.200000" stroke="#000000" stroke-width="2" stroke-opacity="0.200000" points="757.688,-192.024 762.865,-188.335 756.517,-187.99 757.688,-192.024"/>
</g>
<!-- src/classes/Chunk.js&#45;&gt;src/classes/Cell.js -->
<g id="edge29" class="edge"><title>src/classes/Chunk.js&#45;&gt;src/classes/Cell.js</title>
<path fill="none" stroke="#000000" stroke-width="2" stroke-opacity="0.200000" d="M664.515,-315.821C672.822,-317.961 681.426,-321.625 687.5,-327.88 716.62,-357.871 721.331,-410.338 721.761,-436.35"/>
<polygon fill="#000000" fill-opacity="0.200000" stroke="#000000" stroke-width="2" stroke-opacity="0.200000" points="719.662,-436.663 721.788,-442.654 723.862,-436.645 719.662,-436.663"/>
</g>
<!-- src/classes/CustomSelectionMenu.js -->
<g id="node23" class="node"><title>src/classes/CustomSelectionMenu.js</title>
<g id="a_node23"><a xlink:href="src/classes/CustomSelectionMenu.js" xlink:title="CustomSelectionMenu.js">
<path fill="#ffffcc" stroke="black" d="M280.5,-615.88C280.5,-615.88 172.5,-615.88 172.5,-615.88 169.5,-615.88 166.5,-612.88 166.5,-609.88 166.5,-609.88 166.5,-603.88 166.5,-603.88 166.5,-600.88 169.5,-597.88 172.5,-597.88 172.5,-597.88 280.5,-597.88 280.5,-597.88 283.5,-597.88 286.5,-600.88 286.5,-603.88 286.5,-603.88 286.5,-609.88 286.5,-609.88 286.5,-612.88 283.5,-615.88 280.5,-615.88"/>
<text text-anchor="middle" x="226.5" y="-604.68" font-family="Helvetica,sans-Serif" font-size="9.00">CustomSelectionMenu.js</text>
</a>
</g>
</g>
<!-- src/dbg.js&#45;&gt;settings.js -->
<g id="edge49" class="edge"><title>src/dbg.js&#45;&gt;settings.js</title>
<path fill="none" stroke="#000000" stroke-width="2" stroke-opacity="0.200000" d="M737.184,-225.797C741.213,-223.019 745.588,-219.899 749.5,-216.88 758.82,-209.691 768.842,-201.134 776.759,-194.167"/>
<polygon fill="#000000" fill-opacity="0.200000" stroke="#000000" stroke-width="2" stroke-opacity="0.200000" points="778.294,-195.612 781.391,-190.061 775.508,-192.469 778.294,-195.612"/>
</g>
<!-- src/classes/LayeredNoise.js&#45;&gt;src/classes/Position.js -->
<g id="edge38" class="edge"><title>src/classes/LayeredNoise.js&#45;&gt;src/classes/Position.js</title>
<path fill="none" stroke="#000000" stroke-width="2" stroke-opacity="0.200000" d="M677.108,-333.796C701.428,-328.074 732.583,-320.743 756.236,-315.178"/>
<polygon fill="#000000" fill-opacity="0.200000" stroke="#000000" stroke-width="2" stroke-opacity="0.200000" points="756.72,-317.222 762.079,-313.803 755.758,-313.133 756.72,-317.222"/>
</g>
<!-- src/classes/LayeredNoise.js&#45;&gt;src/classes/Cell.js -->
<g id="edge37" class="edge"><title>src/classes/LayeredNoise.js&#45;&gt;src/classes/Cell.js</title>
<path fill="none" stroke="#000000" stroke-width="2" stroke-opacity="0.200000" d="M674.902,-352.12C679.533,-354.427 683.901,-357.302 687.5,-360.88 708.451,-381.716 716.65,-416.653 719.738,-436.632"/>
<polygon fill="#000000" fill-opacity="0.200000" stroke="#000000" stroke-width="2" stroke-opacity="0.200000" points="717.689,-437.142 720.601,-442.793 721.848,-436.559 717.689,-437.142"/>
</g>
<!-- src/classes/LayeredNoise.js&#45;&gt;src/dbg.js -->
<g id="edge36" class="edge"><title>src/classes/LayeredNoise.js&#45;&gt;src/dbg.js</title>
<path fill="none" stroke="#000000" stroke-width="2" stroke-opacity="0.200000" d="M679.915,-334.459C682.767,-332.661 685.355,-330.494 687.5,-327.88 709.891,-300.603 675.898,-278.227 695.5,-248.88 695.578,-248.763 695.658,-248.647 695.739,-248.531"/>
<polygon fill="#000000" fill-opacity="0.200000" stroke="#000000" stroke-width="2" stroke-opacity="0.200000" points="697.507,-249.719 700.118,-243.923 694.463,-246.826 697.507,-249.719"/>
</g>
<!-- src/controller.js -->
<g id="node26" class="node"><title>src/controller.js</title>
<g id="a_node26"><a xlink:href="src/controller.js" xlink:title="controller.js">
<path fill="#ffffcc" stroke="black" d="M142,-481.88C142,-481.88 89,-481.88 89,-481.88 86,-481.88 83,-478.88 83,-475.88 83,-475.88 83,-469.88 83,-469.88 83,-466.88 86,-463.88 89,-463.88 89,-463.88 142,-463.88 142,-463.88 145,-463.88 148,-466.88 148,-469.88 148,-469.88 148,-475.88 148,-475.88 148,-478.88 145,-481.88 142,-481.88"/>
<text text-anchor="middle" x="115.5" y="-470.68" font-family="Helvetica,sans-Serif" font-size="9.00">controller.js</text>
</a>
</g>
</g>
<!-- src/controller.js&#45;&gt;./classes/Cells/Special/PowerPlant -->
<g id="edge43" class="edge"><title>src/controller.js&#45;&gt;./classes/Cells/Special/PowerPlant</title>
<path fill="none" stroke="#000000" stroke-width="2" stroke-opacity="0.200000" d="M116.564,-463.655C117.069,-428.433 121.323,-299.461 156,-200.88 170.255,-160.356 199.01,-118.253 214.695,-96.9874"/>
<polygon fill="#000000" fill-opacity="0.200000" stroke="#000000" stroke-width="2" stroke-opacity="0.200000" points="216.479,-98.1082 218.385,-92.0436 213.113,-95.5963 216.479,-98.1082"/>
</g>
<!-- src/controller.js&#45;&gt;settings.js -->
<g id="edge40" class="edge"><title>src/controller.js&#45;&gt;settings.js</title>
<path fill="none" stroke="#000000" stroke-width="2" stroke-opacity="0.200000" d="M116.743,-463.556C118.341,-405.375 128.171,-93.6342 156,-62.8805 211.179,-1.90228 255.262,-26.8805 337.5,-26.8805 337.5,-26.8805 337.5,-26.8805 638.5,-26.8805 716.488,-26.8805 768.365,-127.501 785.387,-166.075"/>
<polygon fill="#000000" fill-opacity="0.200000" stroke="#000000" stroke-width="2" stroke-opacity="0.200000" points="783.512,-167.032 787.818,-171.708 787.369,-165.367 783.512,-167.032"/>
</g>
<!-- src/controller.js&#45;&gt;src/classes/Grid.js -->
<g id="edge46" class="edge"><title>src/controller.js&#45;&gt;src/classes/Grid.js</title>
<path fill="none" stroke="#000000" stroke-width="2" stroke-opacity="0.200000" d="M117.508,-482.186C120.951,-512.031 133.306,-604.418 156,-621.88 203.091,-658.114 482.568,-599.46 488.5,-592.88 506.223,-573.222 489.64,-379.821 498.5,-354.88 504.448,-338.136 517.145,-322.2 527.121,-311.457"/>
<polygon fill="#000000" fill-opacity="0.200000" stroke="#000000" stroke-width="2" stroke-opacity="0.200000" points="528.848,-312.69 531.478,-306.903 525.813,-309.786 528.848,-312.69"/>
</g>
<!-- src/controller.js&#45;&gt;src/classes/Cells/Constructable.js -->
<g id="edge41" class="edge"><title>src/controller.js&#45;&gt;src/classes/Cells/Constructable.js</title>
<path fill="none" stroke="#000000" stroke-width="2" stroke-opacity="0.200000" d="M117.209,-482.139C119.908,-514.727 130.694,-623.324 156,-644.88 186.771,-671.092 297.079,-656.88 337.5,-656.88 337.5,-656.88 337.5,-656.88 440.5,-656.88 472.799,-656.88 562.529,-669.586 585.5,-646.88 603.932,-628.661 581.465,-554.632 595.868,-524.513"/>
<polygon fill="#000000" fill-opacity="0.200000" stroke="#000000" stroke-width="2" stroke-opacity="0.200000" points="597.851,-525.302 599.263,-519.104 594.294,-523.069 597.851,-525.302"/>
</g>
<!-- src/controller.js&#45;&gt;src/classes/Cells/MultiCellStructure.js -->
<g id="edge42" class="edge"><title>src/controller.js&#45;&gt;src/classes/Cells/MultiCellStructure.js</title>
<path fill="none" stroke="#000000" stroke-width="2" stroke-opacity="0.200000" d="M120.528,-463.771C126.379,-451.818 138.478,-431.368 156,-422.88 209.798,-396.82 231.293,-414.642 290.5,-422.88 301.657,-424.433 362.382,-442.179 402.5,-454.101"/>
<polygon fill="#000000" fill-opacity="0.200000" stroke="#000000" stroke-width="2" stroke-opacity="0.200000" points="401.911,-456.117 408.261,-455.815 403.109,-452.091 401.911,-456.117"/>
</g>
<!-- src/controller.js&#45;&gt;src/classes/Cells/Special/TownHall.js -->
<g id="edge44" class="edge"><title>src/controller.js&#45;&gt;src/classes/Cells/Special/TownHall.js</title>
<path fill="none" stroke="#000000" stroke-width="2" stroke-opacity="0.200000" d="M138.444,-481.884C144.107,-484.021 150.232,-486.173 156,-487.88 166.191,-490.897 177.389,-493.581 187.763,-495.815"/>
<polygon fill="#000000" fill-opacity="0.200000" stroke="#000000" stroke-width="2" stroke-opacity="0.200000" points="187.459,-497.897 193.763,-497.078 188.324,-493.787 187.459,-497.897"/>
</g>
<!-- src/controller.js&#45;&gt;src/classes/Cells/Special/WaterPump.js -->
<g id="edge45" class="edge"><title>src/controller.js&#45;&gt;src/classes/Cells/Special/WaterPump.js</title>
<path fill="none" stroke="#000000" stroke-width="2" stroke-opacity="0.200000" d="M138.444,-463.877C144.107,-461.74 150.232,-459.588 156,-457.88 164.559,-455.347 173.828,-453.048 182.723,-451.054"/>
<polygon fill="#000000" fill-opacity="0.200000" stroke="#000000" stroke-width="2" stroke-opacity="0.200000" points="183.396,-453.056 188.808,-449.722 182.498,-448.953 183.396,-453.056"/>
</g>
<!-- src/controller.js&#45;&gt;src/dbg.js -->
<g id="edge47" class="edge"><title>src/controller.js&#45;&gt;src/dbg.js</title>
<path fill="none" stroke="#000000" stroke-width="2" stroke-opacity="0.200000" d="M117.14,-482.224C119.665,-516.197 130.094,-632.444 156,-656.88 215.375,-712.886 255.879,-684.88 337.5,-684.88 337.5,-684.88 337.5,-684.88 543,-684.88 575.188,-684.88 665.319,-698.206 687.5,-674.88 703.811,-657.727 683.172,-269.087 695.5,-248.88 695.567,-248.771 695.635,-248.662 695.704,-248.555"/>
<polygon fill="#000000" fill-opacity="0.200000" stroke="#000000" stroke-width="2" stroke-opacity="0.200000" points="697.122,-250.124 699.487,-244.223 693.958,-247.361 697.122,-250.124"/>
</g>
<!-- src/display.js -->
<g id="node27" class="node"><title>src/display.js</title>
<g id="a_node27"><a xlink:href="src/display.js" xlink:title="display.js">
<path fill="#ffffcc" stroke="black" d="M248.5,-243.88C248.5,-243.88 204.5,-243.88 204.5,-243.88 201.5,-243.88 198.5,-240.88 198.5,-237.88 198.5,-237.88 198.5,-231.88 198.5,-231.88 198.5,-228.88 201.5,-225.88 204.5,-225.88 204.5,-225.88 248.5,-225.88 248.5,-225.88 251.5,-225.88 254.5,-228.88 254.5,-231.88 254.5,-231.88 254.5,-237.88 254.5,-237.88 254.5,-240.88 251.5,-243.88 248.5,-243.88"/>
<text text-anchor="middle" x="226.5" y="-232.68" font-family="Helvetica,sans-Serif" font-size="9.00">display.js</text>
</a>
</g>
</g>
<!-- src/controller.js&#45;&gt;src/display.js -->
<g id="edge48" class="edge"><title>src/controller.js&#45;&gt;src/display.js</title>
<path fill="none" stroke="#000000" stroke-width="2" stroke-opacity="0.200000" d="M117.868,-463.846C121.599,-440.768 133.232,-378.139 156,-330.88 171.428,-298.857 197.684,-266.336 213.128,-248.573"/>
<polygon fill="#000000" fill-opacity="0.200000" stroke="#000000" stroke-width="2" stroke-opacity="0.200000" points="214.793,-249.859 217.179,-243.966 211.639,-247.085 214.793,-249.859"/>
</g>
<!-- src/display.js&#45;&gt;src/classes/Camera.js -->
<g id="edge50" class="edge"><title>src/display.js&#45;&gt;src/classes/Camera.js</title>
<path fill="none" stroke="#000000" stroke-width="2" stroke-opacity="0.200000" d="M254.653,-239.256C292.632,-245.376 361.644,-256.496 403.458,-263.234"/>
<polygon fill="#000000" fill-opacity="0.200000" stroke="#000000" stroke-width="2" stroke-opacity="0.200000" points="403.165,-265.314 409.423,-264.195 403.833,-261.167 403.165,-265.314"/>
</g>
<!-- src/display.js&#45;&gt;src/classes/Grid.js -->
<g id="edge51" class="edge"><title>src/display.js&#45;&gt;src/classes/Grid.js</title>
<path fill="none" stroke="#000000" stroke-width="2" stroke-opacity="0.200000" d="M231.562,-244.031C243.248,-270.853 276.981,-351.868 290.5,-422.88 294.037,-441.462 285.776,-579.864 299.5,-592.88 360.447,-650.686 427.869,-651.017 488.5,-592.88 507.604,-574.562 489.64,-379.821 498.5,-354.88 504.448,-338.136 517.145,-322.2 527.121,-311.457"/>
<polygon fill="#000000" fill-opacity="0.200000" stroke="#000000" stroke-width="2" stroke-opacity="0.200000" points="528.848,-312.69 531.478,-306.903 525.813,-309.786 528.848,-312.69"/>
</g>
<!-- src/errors.js -->
<g id="node28" class="node"><title>src/errors.js</title>
<g id="a_node28"><a xlink:href="src/errors.js" xlink:title="errors.js">
<path fill="#ccffcc" stroke="black" d="M64,-672.88C64,-672.88 22,-672.88 22,-672.88 19,-672.88 16,-669.88 16,-666.88 16,-666.88 16,-660.88 16,-660.88 16,-657.88 19,-654.88 22,-654.88 22,-654.88 64,-654.88 64,-654.88 67,-654.88 70,-657.88 70,-660.88 70,-660.88 70,-666.88 70,-666.88 70,-669.88 67,-672.88 64,-672.88"/>
<text text-anchor="middle" x="43" y="-661.68" font-family="Helvetica,sans-Serif" font-size="9.00">errors.js</text>
</a>
</g>
</g>
<!-- src/input.js -->
<g id="node29" class="node"><title>src/input.js</title>
<g id="a_node29"><a xlink:href="src/input.js" xlink:title="input.js">
<path fill="#ffffcc" stroke="black" d="M136.5,-699.88C136.5,-699.88 94.5,-699.88 94.5,-699.88 91.5,-699.88 88.5,-696.88 88.5,-693.88 88.5,-693.88 88.5,-687.88 88.5,-687.88 88.5,-684.88 91.5,-681.88 94.5,-681.88 94.5,-681.88 136.5,-681.88 136.5,-681.88 139.5,-681.88 142.5,-684.88 142.5,-687.88 142.5,-687.88 142.5,-693.88 142.5,-693.88 142.5,-696.88 139.5,-699.88 136.5,-699.88"/>
<text text-anchor="middle" x="115.5" y="-688.68" font-family="Helvetica,sans-Serif" font-size="9.00">input.js</text>
</a>
</g>
</g>
<!-- src/main.js -->
<g id="node30" class="node"><title>src/main.js</title>
<g id="a_node30"><a xlink:href="src/main.js" xlink:title="main.js">
<path fill="#ffffcc" stroke="black" d="M64,-615.88C64,-615.88 22,-615.88 22,-615.88 19,-615.88 16,-612.88 16,-609.88 16,-609.88 16,-603.88 16,-603.88 16,-600.88 19,-597.88 22,-597.88 22,-597.88 64,-597.88 64,-597.88 67,-597.88 70,-600.88 70,-603.88 70,-603.88 70,-609.88 70,-609.88 70,-612.88 67,-615.88 64,-615.88"/>
<text text-anchor="middle" x="43" y="-604.68" font-family="Helvetica,sans-Serif" font-size="9.00">main.js</text>
</a>
</g>
</g>
<!-- src/main.js&#45;&gt;settings.js -->
<g id="edge52" class="edge"><title>src/main.js&#45;&gt;settings.js</title>
<path fill="none" stroke="#000000" stroke-width="2" stroke-opacity="0.200000" d="M44.3017,-597.76C46.751,-529.698 65.6616,-101.415 156,-18.8805 179.557,2.6415 193.592,-0.880499 225.5,-0.880499 225.5,-0.880499 225.5,-0.880499 638.5,-0.880499 691.406,-0.880499 714.267,-4.41338 749.5,-43.8805 781.096,-79.2731 788.925,-137.964 790.863,-165.599"/>
<polygon fill="#000000" fill-opacity="0.200000" stroke="#000000" stroke-width="2" stroke-opacity="0.200000" points="788.769,-165.755 791.225,-171.619 792.961,-165.503 788.769,-165.755"/>
</g>
<!-- src/main.js&#45;&gt;src/classes/Grid.js -->
<g id="edge55" class="edge"><title>src/main.js&#45;&gt;src/classes/Grid.js</title>
<path fill="none" stroke="#000000" stroke-width="2" stroke-opacity="0.200000" d="M44.0469,-597.847C44.4879,-563.36 48.5064,-437.101 83,-340.88 104.195,-281.758 102.926,-253.464 156,-219.88 182.234,-203.28 194.455,-212.88 225.5,-212.88 225.5,-212.88 225.5,-212.88 339.5,-212.88 408.184,-212.88 427.674,-221.979 488.5,-253.88 503.524,-261.76 518.107,-274.521 528.074,-284.276"/>
<polygon fill="#000000" fill-opacity="0.200000" stroke="#000000" stroke-width="2" stroke-opacity="0.200000" points="526.854,-286.026 532.578,-288.789 529.826,-283.059 526.854,-286.026"/>
</g>
<!-- src/main.js&#45;&gt;src/classes/Cell.js -->
<g id="edge53" class="edge"><title>src/main.js&#45;&gt;src/classes/Cell.js</title>
<path fill="none" stroke="#000000" stroke-width="2" stroke-opacity="0.200000" d="M48.424,-616.098C54.5415,-627.843 66.7011,-647.931 83,-658.88 107.787,-675.532 119.538,-666.848 148,-675.88 151.619,-677.029 152.306,-677.999 156,-678.88 234.938,-697.718 256.345,-698.88 337.5,-698.88 337.5,-698.88 337.5,-698.88 543,-698.88 607.482,-698.88 640.678,-730.215 687.5,-685.88 719.179,-655.885 721.692,-514.393 721.632,-467.225"/>
<polygon fill="#000000" fill-opacity="0.200000" stroke="#000000" stroke-width="2" stroke-opacity="0.200000" points="723.731,-466.966 721.608,-460.974 719.531,-466.982 723.731,-466.966"/>
</g>
<!-- src/main.js&#45;&gt;src/classes/CustomSelectionMenu.js -->
<g id="edge54" class="edge"><title>src/main.js&#45;&gt;src/classes/CustomSelectionMenu.js</title>
<path fill="none" stroke="#000000" stroke-width="2" stroke-opacity="0.200000" d="M70.0045,-606.88C93.4375,-606.88 128.888,-606.88 160.025,-606.88"/>
<polygon fill="#000000" fill-opacity="0.200000" stroke="#000000" stroke-width="2" stroke-opacity="0.200000" points="160.19,-608.981 166.19,-606.88 160.19,-604.781 160.19,-608.981"/>
</g>
<!-- src/main.js&#45;&gt;src/dbg.js -->
<g id="edge58" class="edge"><title>src/main.js&#45;&gt;src/dbg.js</title>
<path fill="none" stroke="#000000" stroke-width="2" stroke-opacity="0.200000" d="M59.2653,-616.064C80.2119,-628.099 119.439,-648.643 156,-656.88 234.928,-674.664 256.594,-670.88 337.5,-670.88 337.5,-670.88 337.5,-670.88 543,-670.88 615.981,-670.88 651.659,-656.455 687.5,-592.88 706.276,-559.576 675.515,-281.474 695.5,-248.88 695.567,-248.771 695.635,-248.663 695.704,-248.555"/>
<polygon fill="#000000" fill-opacity="0.200000" stroke="#000000" stroke-width="2" stroke-opacity="0.200000" points="697.121,-250.125 699.495,-244.228 693.962,-247.357 697.121,-250.125"/>
</g>
<!-- src/main.js&#45;&gt;src/classes/LayeredNoise.js -->
<g id="edge56" class="edge"><title>src/main.js&#45;&gt;src/classes/LayeredNoise.js</title>
<path fill="none" stroke="#000000" stroke-width="2" stroke-opacity="0.200000" d="M70.0346,-613.928C92.5971,-619.737 126.211,-627.68 156,-631.88 236.023,-643.163 256.685,-642.88 337.5,-642.88 337.5,-642.88 337.5,-642.88 440.5,-642.88 508.668,-642.88 544.599,-647.415 585.5,-592.88 599.316,-574.459 586.428,-407.045 595.5,-385.88 600.574,-374.041 610.454,-363.521 619.243,-355.85"/>
<polygon fill="#000000" fill-opacity="0.200000" stroke="#000000" stroke-width="2" stroke-opacity="0.200000" points="620.722,-357.351 623.977,-351.891 618.027,-354.129 620.722,-357.351"/>
</g>
<!-- src/main.js&#45;&gt;src/controller.js -->
<g id="edge57" class="edge"><title>src/main.js&#45;&gt;src/controller.js</title>
<path fill="none" stroke="#000000" stroke-width="2" stroke-opacity="0.200000" d="M48.8458,-597.67C60.8697,-574.816 92.1544,-515.353 106.768,-487.577"/>
<polygon fill="#000000" fill-opacity="0.200000" stroke="#000000" stroke-width="2" stroke-opacity="0.200000" points="108.685,-488.443 109.62,-482.155 104.968,-486.487 108.685,-488.443"/>
</g>
<!-- src/main.js&#45;&gt;src/display.js -->
<g id="edge59" class="edge"><title>src/main.js&#45;&gt;src/display.js</title>
<path fill="none" stroke="#000000" stroke-width="2" stroke-opacity="0.200000" d="M45.5524,-597.535C49.711,-573.637 62.2182,-508.604 83,-457.88 107.682,-397.636 120.64,-385.546 156,-330.88 175.51,-300.718 200.733,-267.047 214.803,-248.681"/>
<polygon fill="#000000" fill-opacity="0.200000" stroke="#000000" stroke-width="2" stroke-opacity="0.200000" points="216.47,-249.959 218.462,-243.923 213.14,-247.399 216.47,-249.959"/>
</g>
<!-- src/main.js&#45;&gt;src/input.js -->
<g id="edge60" class="edge"><title>src/main.js&#45;&gt;src/input.js</title>
<path fill="none" stroke="#000000" stroke-width="2" stroke-opacity="0.200000" d="M49.939,-616.129C55.3131,-624.577 63.3765,-637.455 70,-648.88 76.084,-659.375 74.5201,-664.206 83,-672.88 84.8822,-674.806 87.0143,-676.59 89.2602,-678.227"/>
<polygon fill="#000000" fill-opacity="0.200000" stroke="#000000" stroke-width="2" stroke-opacity="0.200000" points="88.4778,-680.227 94.6433,-681.775 90.7891,-676.72 88.4778,-680.227"/>
</g>
</g>
</svg>
